<svg height="28" viewBox="0 0 399 28" width="399" xmlns="http://www.w3.org/2000/svg"><g fill="none" fill-rule="evenodd"><g fill-rule="nonzero" transform="matrix(-1 0 0 -1 86.876007 27.669754)"><path d="m19.468599 24.6121399c9.2753624 3.6748971 20.2898551 1.7649177 27.7777778-5.7541152l11.5217391-11.53240742s0 0 .0241546-.02417695c2.5845411-2.58693416 6.1352657-3.67489712 9.5169082-3.26388889-9.2753623-3.67489712-20.289855-1.7649177-27.7777777 5.75411523l-11.5458938 11.55658433s0 0-.0241545.024177c-2.5845411 2.5869341-6.1352657 3.6748971-9.4927537 3.2397119z" fill="#25ac9b"/><path d="m78.7922705 27.3924897-1.4492753-1.4506173-8.236715-8.2443415-10.3623188-10.37191362.0241545-.02417695c2.5845411-2.58693416 6.1111112-3.67489712 9.4927537-3.26388889 3.1884058 1.25720165 6.1594203 3.16718107 8.7439613 5.75411523l9.6859904 9.69495883c0 .024177-.1449276 7.8575103-7.8985508 7.9058642z" fill="#ecb004"/><path d="m49.2028986 4.0617284c6.1111111-2.41769548 12.9468599-2.41769548 19.057971 0-3.3816425-.43518519-6.9082126.65277777-9.5169082 3.26388888-2.5845411-2.61111111-6.1352657-3.69907407-9.5410628-3.26388888z" fill="#2e3959"/><path d="m19.468599 24.6121399c-3.1884058-1.2572016-6.1835748-3.1671811-8.7439613-5.7299383l-9.08212562-9.11471189c-2.17391305-2.17592592-2.17391305-5.72993827 0-7.9058642 2.17391304-2.17592592 5.72463768-2.17592592 7.89855072 0l1.4492754 1.45061729 7.6328502 7.6399177 10.3623188 10.3960905-.0241545.024177c-2.5845411 2.5869341-6.1111112 3.6748971-9.4927537 3.2397119z" fill="#287cbc"/><path d="m38.52657 24.6121399c-6.1111111 2.4176955-12.9468599 2.4176955-19.057971 0 3.3816425.4351852 6.9082126-.6527778 9.5169082-3.2638889 2.5845411 2.6352881 6.1352657 3.6990741 9.5410628 3.2638889z" fill="#075681"/><g transform="translate(6.280193 2.417695)"><path d="m13.1884058 1.98251029c9.2753623-3.67489712 20.2657005-1.74074074 27.7777778 5.75411522l11.5217391 11.53240739s0 0 .0241546.024177c2.5845411 2.5869341 6.1352657 3.6748971 9.5169082 3.2638889-9.2753623 3.6748971-20.2898551 1.7649177-27.7777778-5.7541153l-11.5458937-11.53240737s0 0-.0241546-.02417695c-2.584541-2.58693416-6.1352657-3.67489712-9.4927536-3.26388889z" fill="#e94b86"/><path d="m40.942029 16.4403292 4.3478261-4.3518518-4.3478261-4.35185189c-1.1352657-1.13631687-2.3429952-2.12757201-3.6231884-3.02211934-1.0869565.79783951-2.1497585 1.69238683-3.1400966 2.65946502l-4.6618358 4.71450621 4.6859904 4.6903292c.9903381.9912551 2.0289855 1.8858025 3.1400966 2.659465 1.2801932-.8461934 2.4879227-1.8616255 3.5990338-2.9979424z" fill="#2b3b5c"/><path d="m70.7487923 7.47067901c-1.1111111-1.11213992-2.3188406-2.12757201-3.5748793-2.99794238l-4.3236715 4.32767489-3.2608695 3.28806588 3.2850241 3.2880658 4.3236715 4.3276749c1.2560387-.8703704 2.4637681-1.8616255 3.5748793-2.9979424l4.5893719-4.6177983z" fill="#e94b86"/><path d="m42.9227053 22.5329218c6.1111111 2.4176955 12.9468599 2.4176955 19.057971 0-3.3816425.4351852-6.9082125-.6527778-9.5169082-3.2638889-2.584541 2.6352881-6.1352657 3.7232511-9.5410628 3.2638889z" fill="#c62101"/><path d="m12.3429952 8.55864198-4.00966187-4.01337449c-1.37681159.91872428-2.68115942 1.98251029-3.88888889 3.19135802l-4.34782608 4.35185189 4.34782608 4.3518518c1.20772947 1.2088478 2.5120773 2.2726338 3.88888889 3.191358l4.00966187-4.0133744 3.52657-3.5298354z" fill="#075681"/><path d="m32.2463768 2.00668724c-6.1111111-2.41769547-12.9468599-2.41769547-19.057971 0 3.3816425-.43518518 6.9082126.65277778 9.5169082 3.26388889 2.5845411-2.63528806 6.1352657-3.72325103 9.5410628-3.26388889z" fill="#b52a8f"/></g></g><text fill="#2b3b5c" font-family="Calibre-Medium, Calibre" font-size="22.222222" font-weight="400"><tspan x="101.851852" y="20.592593">GeneOS</tspan></text><text fill="#2b3b5c" font-family="Calibre-Regular, Calibre" font-size="22.222222"><tspan x="188.888889" y="20.962963">Omics Data Marketplace</tspan></text><path d="m180.925926 1.2962963v25.1851852" stroke="#ccc" stroke-linecap="square" stroke-width=".5"/></g></svg>